<svg xmlns="http://www.w3.org/2000/svg" viewBox="0 0 512 512">
  <rect width="512" height="512" fill="#1a1a1a"/>
  <g fill="#fff">
    <!-- top-left finder -->
    <path fill-rule="evenodd" d="M96 96h128v128H96V96zm24 24v80h80v-80h-80z"/>
    <rect x="140" y="140" width="40" height="40"/>
    <!-- top-right finder -->
    <path fill-rule="evenodd" d="M288 96h128v128H288V96zm24 24v80h80v-80h-80z"/>
    <rect x="332" y="140" width="40" height="40"/>
    <!-- bottom-left finder -->
    <path fill-rule="evenodd" d="M96 288h128v128H96V288zm24 24v80h80v-80h-80z"/>
    <rect x="140" y="332" width="40" height="40"/>
    <!-- decorative data modules -->
    <rect x="288" y="288" width="32" height="32"/>
    <rect x="336" y="288" width="32" height="32"/>
    <rect x="384" y="288" width="32" height="32"/>
    <rect x="288" y="336" width="32" height="32"/>
    <rect x="384" y="336" width="32" height="32"/>
    <rect x="288" y="384" width="32" height="32"/>
    <rect x="384" y="384" width="32" height="32"/>
    <rect x="248" y="248" width="16" height="16"/>
  </g>
</svg>
